<?xml version="1.0" encoding="UTF-8"?><svg id="Layer_2" xmlns="http://www.w3.org/2000/svg" viewBox="0 0 1111.68 1111"><defs><style>.cls-1{stroke-width:10px;}.cls-1,.cls-2{stroke:#00e0ff;}.cls-1,.cls-2,.cls-3{stroke-miterlimit:10;}.cls-2{fill:none;stroke-width:5px;}.cls-3{stroke:#000;stroke-width:30px;}.cls-3,.cls-4,.cls-5{fill:#00e0ff;}.cls-5{font-family:Montserrat-ExtraBold, Montserrat;font-size:70.74px;font-weight:700;}</style></defs><g id="Layer_1-2"><circle class="cls-1" cx="553.07" cy="556.04" r="521.9"/><text class="cls-5" transform="translate(569.59 118.28) rotate(5.44) scale(1.04 1)"><tspan x="0" y="0">V</tspan></text><text class="cls-5" transform="translate(627.67 124.01) rotate(12.96) scale(1.04 1)"><tspan x="0" y="0">C</tspan></text><text class="cls-5" transform="translate(681.68 136.24) rotate(20.81) scale(1.04 1)"><tspan x="0" y="0">O</tspan></text><text class="cls-5" transform="translate(743.17 160.92) rotate(27.04) scale(1.04 1)"><tspan x="0" y="0">I</tspan></text><text class="cls-5" transform="translate(769.23 173.43) rotate(33.07) scale(1.04 1)"><tspan x="0" y="0">N</tspan></text><text class="cls-5" transform="translate(821.78 208.37) rotate(40.52) scale(1.04 1)"><tspan x="0" y="0">S</tspan></text><text class="cls-5" transform="translate(860.64 242.58) rotate(45.57) scale(1.04 1)"><tspan x="0" y="0"> </tspan></text><text class="cls-5" transform="translate(879 260.13) rotate(51.47) scale(1.04 1)"><tspan x="0" y="0">D</tspan></text><text class="cls-5" transform="translate(918.44 311.54) rotate(57.63) scale(1.04 1)"><tspan x="0" y="0">I</tspan></text><text class="cls-5" transform="translate(934.45 335.64) rotate(63.55) scale(1.04 1)"><tspan x="0" y="0">G</tspan></text><text class="cls-5" transform="translate(960.57 390.42) rotate(69.48) scale(1.04 1)"><tspan x="0" y="0">I</tspan></text><text class="cls-5" transform="translate(971.04 417.48) rotate(74.75) scale(1.04 1)"><tspan x="0" y="0">T</tspan></text><text class="cls-5" transform="translate(983.93 463.75) rotate(81.73) scale(1.04 1)"><tspan x="0" y="0">A</tspan></text><text class="cls-5" transform="translate(992.19 524.86) rotate(88.88) scale(1.04 1)"><tspan x="0" y="0">L</tspan></text><text class="cls-5" transform="translate(992.48 573.94) rotate(93.79) scale(1.04 1)"><tspan x="0" y="0"> </tspan></text><text class="cls-5" transform="translate(991.63 599.31) rotate(99.75) scale(1.04 1)"><tspan x="0" y="0">D</tspan></text><text class="cls-5" transform="translate(980.09 662.79) rotate(107.52) scale(1.04 1)"><tspan x="0" y="0">E</tspan></text><text class="cls-5" transform="translate(963.97 713.54) rotate(114.8) scale(1.04 1)"><tspan x="0" y="0">C</tspan></text><text class="cls-5" transform="translate(939.51 765.6) rotate(122.04) scale(1.04 1)"><tspan x="0" y="0">E</tspan></text><text class="cls-5" transform="translate(911.37 810.74) rotate(129.62) scale(1.04 1)"><tspan x="0" y="0">N</tspan></text><text class="cls-5" transform="translate(870.64 858.94) rotate(137.03) scale(1.04 1)"><tspan x="0" y="0">T</tspan></text><text class="cls-5" transform="translate(833.67 893.41) rotate(144.15) scale(1.04 1)"><tspan x="0" y="0">R</tspan></text><text class="cls-5" transform="translate(786.47 927.38) rotate(152.03) scale(1.04 1)"><tspan x="0" y="0">A</tspan></text><text class="cls-5" transform="translate(731.72 955.73) rotate(159.3) scale(1.04 1)"><tspan x="0" y="0">L</tspan></text><text class="cls-5" transform="translate(685.62 972.47) rotate(164.44) scale(1.04 1)"><tspan x="0" y="0">I</tspan></text><text class="cls-5" transform="translate(657.74 980.59) rotate(169.71) scale(1.04 1)"><tspan x="0" y="0">S</tspan></text><text class="cls-5" transform="translate(607.04 989.63) rotate(176.47) scale(1.04 1)"><tspan x="0" y="0">E</tspan></text><text class="cls-5" transform="translate(553.97 993.06) rotate(-175.84) scale(1.04 1)"><tspan x="0" y="0">D</tspan></text><text class="cls-5" transform="translate(489.43 987.14) rotate(-169.89) scale(1.04 1)"><tspan x="0" y="0"> </tspan></text><text class="cls-5" transform="translate(464.27 983.27) rotate(-164.36) scale(1.04 1)"><tspan x="0" y="0">P</tspan></text><text class="cls-5" transform="translate(409.16 967.49) rotate(-157.14) scale(1.04 1)"><tspan x="0" y="0">E</tspan></text><text class="cls-5" transform="translate(360.15 946.59) rotate(-150.17) scale(1.04 1)"><tspan x="0" y="0">E</tspan></text><text class="cls-5" transform="translate(313.99 920.04) rotate(-142.9) scale(1.04 1)"><tspan x="0" y="0">R</tspan></text><text class="cls-5" transform="translate(267.88 883.94) rotate(-137.43) scale(1.04 1)"><tspan x="0" y="0"> </tspan></text><text class="cls-5" transform="translate(248.81 866.94) rotate(-132.43) scale(1.04 1)"><tspan x="0" y="0">T</tspan></text><text class="cls-5" transform="translate(214.99 830.43) rotate(-124.89) scale(1.04 1)"><tspan x="0" y="0">O</tspan></text><text class="cls-5" transform="translate(178.13 775.33) rotate(-118.84) scale(1.04 1)"><tspan x="0" y="0"> </tspan></text><text class="cls-5" transform="translate(165.8 752.67) rotate(-115.43) scale(1.04 1)"><tspan x="0" y="0"> </tspan></text><text class="cls-5" transform="translate(154.32 729.95) rotate(-109.88) scale(1.04 1)"><tspan x="0" y="0">P</tspan></text><text class="cls-5" transform="translate(135.15 675.93) rotate(-102.66) scale(1.04 1)"><tspan x="0" y="0">E</tspan></text><text class="cls-5" transform="translate(123.68 623.88) rotate(-95.76) scale(1.04 1)"><tspan x="0" y="0">E</tspan></text><text class="cls-5" transform="translate(118.39 570.89) rotate(-88.49) scale(1.04 1)"><tspan x="0" y="0">R</tspan></text><text class="cls-5" transform="translate(120.92 512.39) rotate(-82.95) scale(1.04 1)"><tspan x="0" y="0"> </tspan></text><text class="cls-5" transform="translate(124.17 486.81) rotate(-79.3) scale(1.04 1)"><tspan x="0" y="0">I</tspan></text><text class="cls-5" transform="translate(128.83 458.29) rotate(-73.2) scale(1.04 1)"><tspan x="0" y="0">N</tspan></text><text class="cls-5" transform="translate(146.99 399.09) rotate(-65.26) scale(1.04 1)"><tspan x="0" y="0">V</tspan></text><text class="cls-5" transform="translate(172.06 345.6) rotate(-57.99) scale(1.04 1)"><tspan x="0" y="0">E</tspan></text><text class="cls-5" transform="translate(200.55 300.53) rotate(-51.16) scale(1.04 1)"><tspan x="0" y="0">S</tspan></text><text class="cls-5" transform="translate(232.55 261.1) rotate(-44.59) scale(1.04 1)"><tspan x="0" y="0">T</tspan></text><text class="cls-5" transform="translate(268.04 225.28) rotate(-36.47) scale(1.04 1)"><tspan x="0" y="0">M</tspan></text><text class="cls-5" transform="translate(328.01 182.21) rotate(-28.12) scale(1.04 1)"><tspan x="0" y="0">E</tspan></text><text class="cls-5" transform="translate(374.86 157.06) rotate(-20.45) scale(1.04 1)"><tspan x="0" y="0">N</tspan></text><text class="cls-5" transform="translate(434.21 135.62) rotate(-13) scale(1.04 1)"><tspan x="0" y="0">T</tspan></text><text class="cls-5" transform="translate(483.39 124.42) rotate(-6.35) scale(1.04 1)"><tspan x="0" y="0">S</tspan></text><path class="cls-4" d="M862.54,800.93l-6.27-5.05c2.92-3.55,5.68-7.23,8.49-10.88,2.71-3.72,5.47-7.4,8.05-11.2l6.61,4.59c13.93-20.05,25.99-41.4,35.97-63.69l-7.35-3.29c3.78-8.39,7.17-16.95,10.35-25.58l7.57,2.75c5.71-15.91,10.55-32.15,14.16-48.67l1.35-6.2,1.2-6.23c.84-4.14,1.45-8.33,2.16-12.49,1.24-8.36,2.34-16.74,3.05-25.17l-29.41-2.63c-.65,7.79-1.67,15.55-2.82,23.28-.66,3.85-1.22,7.72-2,11.55l-1.11,5.76-1.25,5.73c-3.33,15.27-7.81,30.28-13.09,44.99l7.57,2.75c-3.08,8.33-6.35,16.58-9.99,24.68l-7.35-3.29c-9.22,20.61-20.38,40.35-33.27,58.9l6.61,4.59c-2.49,3.68-5.16,7.22-7.77,10.81-2.71,3.52-5.37,7.07-8.19,10.5l-6.27-5.05c-8.18,10.15-16.89,19.86-26.1,29.09l20.88,20.88c9.95-9.97,19.37-20.47,28.2-31.43Z"/><path class="cls-4" d="M598.5,945.26l-.85-8.01,6.85-.78c2.28-.27,4.56-.62,6.84-.93l3.42-.48,3.4-.56,6.8-1.14,1.43,7.92c24.04-4.32,47.66-10.93,70.47-19.66l-2.88-7.52,3.22-1.23,3.2-1.3c2.13-.88,4.26-1.73,6.38-2.62,4.21-1.85,8.44-3.65,12.59-5.64l3.41,7.29c15.34-7.13,30.14-15.35,44.42-24.39,7.1-4.58,14.13-9.28,20.93-14.31,3.44-2.46,6.76-5.07,10.12-7.63,1.68-1.29,3.3-2.64,4.95-3.96,1.64-1.33,3.3-2.64,4.9-4.02l-18.92-22.66c-1.48,1.28-3.02,2.49-4.54,3.72-1.53,1.22-3.03,2.47-4.58,3.66-3.11,2.37-6.18,4.79-9.36,7.06-6.28,4.65-12.79,9-19.36,13.24-13.21,8.36-26.9,15.97-41.08,22.56l3.41,7.29c-4,1.92-8.09,3.66-12.15,5.45-2.04.87-4.11,1.69-6.16,2.53l-3.08,1.25-3.11,1.18-2.88-7.52c-21.08,8.07-42.92,14.18-65.14,18.18l1.43,7.92-6.57,1.1-3.29.54-3.3.46c-2.2.3-4.39.64-6.6.9l-6.62.76-.85-8.01c-12.96,1.39-25.99,2.08-39.03,2.09v29.52c14.08,0,28.16-.75,42.16-2.26Z"/><path class="cls-4" d="M309.77,860.57l5.05-6.27c3.55,2.92,7.23,5.68,10.88,8.49,3.72,2.71,7.4,5.47,11.2,8.05l-4.59,6.61c20.05,13.93,41.4,25.99,63.69,35.97l3.29-7.35c8.39,3.78,16.95,7.17,25.58,10.35l-2.75,7.57c15.91,5.71,32.15,10.55,48.67,14.16l6.2,1.35,6.23,1.2c4.14.84,8.33,1.45,12.49,2.16,8.36,1.24,16.74,2.34,25.17,3.05l2.63-29.41c-7.79-.65-15.55-1.67-23.28-2.82-3.85-.66-7.72-1.22-11.55-2l-5.76-1.11-5.73-1.25c-15.27-3.33-30.28-7.81-44.99-13.09l-2.75,7.57c-8.33-3.08-16.58-6.35-24.68-9.99l3.29-7.35c-20.61-9.22-40.35-20.38-58.9-33.27l-4.59,6.61c-3.68-2.49-7.22-5.16-10.81-7.77-3.52-2.71-7.07-5.37-10.5-8.19l5.05-6.27c-10.15-8.18-19.86-16.89-29.09-26.1l-20.88,20.88c9.97,9.95,20.47,19.37,31.43,28.2Z"/><path class="cls-4" d="M165.44,596.53l8.01-.85.78,6.85c.27,2.28.62,4.56.93,6.84l.48,3.42.56,3.4,1.14,6.8-7.92,1.43c4.32,24.04,10.93,47.66,19.66,70.47l7.52-2.88,1.23,3.22,1.3,3.2c.88,2.13,1.73,4.26,2.62,6.38,1.85,4.21,3.65,8.44,5.64,12.59l-7.29,3.41c7.13,15.33,15.35,30.14,24.39,44.42,4.58,7.1,9.28,14.13,14.31,20.93,2.46,3.44,5.07,6.76,7.63,10.12,1.29,1.68,2.64,3.3,3.96,4.95,1.33,1.64,2.64,3.3,4.02,4.9l22.66-18.92c-1.28-1.48-2.49-3.02-3.72-4.54-1.22-1.53-2.47-3.03-3.66-4.58-2.37-3.11-4.79-6.18-7.06-9.36-4.65-6.28-9-12.79-13.24-19.36-8.36-13.21-15.97-26.9-22.56-41.08l-7.29,3.41c-1.92-4-3.66-8.09-5.45-12.15-.87-2.04-1.69-4.11-2.53-6.16l-1.25-3.08-1.18-3.11,7.52-2.88c-8.07-21.08-14.18-42.92-18.18-65.14l-7.92,1.43-1.1-6.57-.54-3.29-.46-3.3c-.3-2.2-.64-4.39-.9-6.6l-.76-6.62,8.01-.85c-1.39-12.96-2.08-25.99-2.09-39.03h-29.52c0,14.08.76,28.16,2.25,42.16Z"/><path class="cls-4" d="M250.13,307.8l6.27,5.05c-2.92,3.55-5.68,7.23-8.49,10.88-2.71,3.72-5.47,7.4-8.05,11.2l-6.61-4.59c-13.93,20.05-25.99,41.4-35.97,63.69l7.35,3.29c-3.78,8.39-7.17,16.95-10.35,25.58l-7.57-2.75c-5.71,15.91-10.55,32.15-14.16,48.67l-1.35,6.2-1.2,6.23c-.84,4.14-1.45,8.33-2.16,12.49-1.24,8.36-2.34,16.74-3.05,25.17l29.41,2.63c.65-7.79,1.67-15.55,2.82-23.28.66-3.85,1.22-7.72,2-11.55l1.11-5.76,1.25-5.73c3.33-15.27,7.81-30.28,13.09-44.99l-7.57-2.75c3.08-8.33,6.35-16.58,9.99-24.68l7.35,3.29c9.22-20.61,20.38-40.35,33.27-58.9l-6.61-4.59c2.49-3.68,5.16-7.22,7.77-10.81,2.71-3.52,5.37-7.07,8.19-10.5l6.27,5.05c8.18-10.15,16.89-19.86,26.1-29.09l-20.88-20.88c-9.95,9.97-19.37,20.47-28.2,31.43Z"/><path class="cls-4" d="M514.17,163.47l.85,8.01-6.85.78c-2.28.27-4.56.62-6.84.93l-3.42.48-3.4.56-6.8,1.14-1.43-7.92c-24.04,4.32-47.66,10.93-70.47,19.66l2.88,7.52-3.22,1.23-3.2,1.3c-2.13.88-4.26,1.73-6.38,2.62-4.21,1.85-8.44,3.65-12.59,5.64l-3.41-7.29c-15.33,7.13-30.14,15.35-44.42,24.39-7.1,4.58-14.13,9.28-20.93,14.31-3.44,2.46-6.76,5.07-10.12,7.63-1.67,1.29-3.3,2.64-4.95,3.96-1.64,1.33-3.3,2.64-4.9,4.02l18.92,22.66c1.48-1.28,3.02-2.49,4.54-3.72,1.53-1.22,3.03-2.47,4.58-3.66,3.11-2.37,6.18-4.79,9.36-7.06,6.28-4.65,12.79-9,19.36-13.24,13.21-8.36,26.9-15.97,41.08-22.56l-3.41-7.29c4-1.92,8.09-3.66,12.15-5.45,2.04-.87,4.11-1.69,6.16-2.53l3.08-1.25,3.11-1.18,2.88,7.52c21.08-8.07,42.92-14.18,65.14-18.18l-1.43-7.92,6.57-1.1,3.29-.54,3.3-.46c2.2-.3,4.39-.64,6.6-.9l6.62-.76.85,8.01c12.96-1.39,25.99-2.08,39.03-2.09v-29.52c-14.08,0-28.16.76-42.16,2.26Z"/><path class="cls-4" d="M802.9,248.17l-5.05,6.27c-3.55-2.92-7.23-5.68-10.88-8.49-3.72-2.71-7.4-5.47-11.2-8.05l4.59-6.61c-20.05-13.93-41.4-25.99-63.69-35.97l-3.29,7.35c-8.39-3.78-16.95-7.17-25.58-10.35l2.75-7.57c-15.91-5.71-32.15-10.55-48.67-14.16l-6.2-1.35-6.23-1.2c-4.14-.84-8.33-1.45-12.49-2.16-8.36-1.24-16.74-2.34-25.17-3.05l-2.63,29.41c7.79.65,15.55,1.67,23.28,2.82,3.85.66,7.72,1.22,11.55,2l5.76,1.1,5.73,1.25c15.27,3.33,30.28,7.81,44.99,13.09l2.75-7.57c8.33,3.08,16.58,6.35,24.68,9.99l-3.29,7.35c20.61,9.22,40.35,20.38,58.9,33.27l4.59-6.61c3.68,2.49,7.22,5.16,10.81,7.77,3.52,2.71,7.07,5.37,10.5,8.19l-5.05,6.27c10.15,8.18,19.86,16.89,29.09,26.1l20.88-20.88c-9.97-9.95-20.47-19.37-31.43-28.2Z"/><path class="cls-4" d="M947.23,512.21l-8.01.85-.78-6.85c-.28-2.28-.62-4.56-.93-6.84l-.48-3.42-.56-3.4-1.14-6.8,7.92-1.43c-4.32-24.04-10.93-47.66-19.66-70.47l-7.52,2.88-1.23-3.22-1.3-3.2c-.88-2.13-1.73-4.26-2.62-6.38-1.85-4.21-3.65-8.44-5.64-12.59l7.29-3.41c-7.13-15.33-15.35-30.14-24.39-44.42-4.58-7.1-9.28-14.13-14.31-20.93-2.46-3.44-5.07-6.76-7.63-10.12-1.29-1.68-2.64-3.3-3.96-4.95-1.33-1.64-2.64-3.3-4.02-4.9l-22.66,18.92c1.28,1.48,2.49,3.02,3.72,4.54,1.22,1.53,2.47,3.03,3.66,4.58,2.37,3.11,4.79,6.18,7.06,9.36,4.65,6.28,9,12.79,13.24,19.36,8.36,13.21,15.97,26.9,22.56,41.08l7.29-3.41c1.92,4,3.66,8.09,5.45,12.15.86,2.04,1.69,4.11,2.53,6.16l1.25,3.08,1.18,3.11-7.52,2.88c8.07,21.08,14.18,42.92,18.18,65.14l7.92-1.43,1.1,6.57.54,3.29.46,3.3c.3,2.2.64,4.39.9,6.6l.76,6.62-8.01.85c1.39,12.96,2.08,25.99,2.09,39.03h29.52c0-14.08-.75-28.16-2.26-42.16Z"/><path class="cls-4" d="M556.34,904.17c-47.22,0-93.03-9.25-136.16-27.49-41.65-17.62-79.06-42.84-111.19-74.96-32.12-32.12-57.35-69.53-74.96-111.19-18.24-43.13-27.49-88.94-27.49-136.16s9.25-93.03,27.49-136.16c17.62-41.65,42.84-79.06,74.96-111.19,32.12-32.12,69.53-57.35,111.19-74.96,43.13-18.24,88.94-27.49,136.16-27.49s93.03,9.25,136.16,27.49c41.65,17.62,79.06,42.84,111.19,74.96,32.12,32.12,57.35,69.53,74.96,111.19,18.24,43.13,27.49,88.94,27.49,136.16s-9.25,93.03-27.49,136.16c-17.62,41.65-42.84,79.06-74.96,111.19-32.12,32.12-69.53,57.35-111.19,74.96-43.13,18.24-88.94,27.49-136.16,27.49ZM556.34,207.61c-191.2,0-346.75,155.55-346.75,346.75s155.55,346.75,346.75,346.75,346.75-155.55,346.75-346.75-155.55-346.75-346.75-346.75Z"/><path class="cls-4" d="M905.75,531c-.09-1.57-.21-3.14-.33-4.7-.1-1.28-.21-2.56-.33-3.83-.13-1.57-.28-3.14-.46-4.7-.11-1.11-.22-2.21-.35-3.32-.17-1.57-.37-3.14-.56-4.7-.24-1.9-.49-3.8-.78-5.69-.22-1.57-.46-3.14-.71-4.7-.29-1.9-.61-3.81-.94-5.7-.27-1.57-.56-3.14-.84-4.7-.53-2.75-1.08-5.49-1.67-8.23-.33-1.57-.68-3.14-1.04-4.7-4.51-19.75-10.77-39.11-18.74-57.94-17.63-41.7-42.89-79.15-75.04-111.31-32.16-32.16-69.61-57.41-111.31-75.04-43.18-18.27-89.03-27.52-136.3-27.52s-93.14,9.25-136.3,27.52c-41.7,17.63-79.15,42.89-111.31,75.04-32.16,32.16-57.41,69.61-75.04,111.31-18.27,43.17-27.52,89.03-27.52,136.3s9.26,93.13,27.52,136.3c17.63,41.7,42.88,79.15,75.04,111.31,32.16,32.16,69.61,57.41,111.31,75.04,43.17,18.26,89.03,27.52,136.3,27.52s93.13-9.26,136.3-27.52c41.7-17.63,79.15-42.89,111.31-75.04,32.16-32.16,57.41-69.61,75.04-111.31,9.32-22.04,16.3-44.79,20.89-68.06.32-1.56.62-3.13.9-4.7.5-2.73.97-5.48,1.4-8.23.26-1.57.49-3.14.72-4.7.28-1.89.54-3.8.78-5.7.21-1.56.4-3.13.56-4.7.22-1.89.43-3.8.6-5.7.16-1.56.3-3.14.43-4.7.09-1.1.18-2.21.26-3.32.12-1.57.23-3.14.32-4.7.08-1.27.15-2.55.21-3.83.08-1.56.14-3.14.21-4.7.16-4.41.24-8.82.24-13.25,0-7.83-.25-15.63-.77-23.37ZM902.25,572.32c-.07,1.28-.14,2.56-.23,3.83-.09,1.58-.2,3.14-.32,4.7-.08,1.11-.17,2.21-.27,3.32-.13,1.57-.27,3.14-.43,4.7-.19,1.9-.4,3.81-.62,5.7-.18,1.58-.37,3.14-.58,4.7-.24,1.91-.51,3.81-.79,5.7-.23,1.58-.47,3.14-.72,4.7-.44,2.76-.92,5.5-1.43,8.23-.29,1.58-.59,3.14-.91,4.7-31.78,158.42-171.98,278.13-339.62,278.13-191,0-346.37-155.38-346.37-346.37s155.38-346.37,346.37-346.37c164.05,0,301.83,114.64,337.44,268.01.36,1.56.71,3.13,1.06,4.7.59,2.73,1.15,5.47,1.67,8.23.3,1.56.59,3.13.87,4.7.34,1.9.66,3.79.97,5.7.25,1.56.49,3.13.72,4.7.28,1.89.55,3.79.79,5.69.2,1.56.4,3.13.58,4.7.12,1.1.24,2.21.36,3.32.17,1.57.33,3.14.46,4.7.12,1.27.23,2.55.33,3.83.14,1.57.25,3.14.34,4.7.53,7.73.79,15.52.79,23.37,0,4.44-.08,8.85-.25,13.25-.06,1.57-.13,3.14-.21,4.7Z"/><path class="cls-4" d="M900.79,617.91c-.28,1.58-.58,3.14-.9,4.7h-33.1l-9.66,4.74c-13.28,56.3-41.95,107.97-83.87,149.9-59.53,59.53-138.69,92.32-222.88,92.32s-163.35-32.79-222.89-92.32c-50.46-50.47-81.72-115.04-90.05-184.82-.24-1.99-.46-3.99-.66-6l4.33-4.32,17.14-17.15h209.35v-1.29h18.28v7.35h-18.28v-1.36h-207.39l-18.49,18.49c16.89,155.38,148.86,276.71,308.67,276.71,145.09,0,267.26-100.03,301.14-234.76.51-1.97.98-3.96,1.44-5.94l5.5-2.69,7.23-3.56h35.1Z"/><path class="cls-4" d="M898.78,480.71h-33.08l-9.95-4.89-5.69-2.79c-.56-2.04-1.13-4.07-1.72-6.08-37.85-128.78-157.1-223.08-297.97-223.08-159.81,0-291.78,121.33-308.67,276.71l18.49,18.49h209.59v-.97h18.28v7.36h-18.28v-1.69h-211.55l-17.14-17.14-4.33-4.33c.21-2,.42-4,.66-5.99,8.33-69.78,39.59-134.36,90.05-184.82,59.54-59.53,138.69-92.32,222.89-92.32s163.35,32.79,222.88,92.32c39.04,39.04,66.57,86.51,80.91,138.32l12.62,6.2h30.95c.37,1.57.71,3.14,1.04,4.7Z"/><path class="cls-4" d="M902.9,604.97c-.22,1.57-.46,3.14-.72,4.7h-59.33l-11.9,5.85h0c-10.57,48.96-33.94,94.44-68.61,132.41-51.71,56.62-122.37,89.72-198.96,93.2-76.6,3.47-149.96-23.09-206.58-74.79-48.55-44.34-79.8-102.61-89.92-166.61-.3-1.93-.59-3.87-.84-5.81l4.19-4.19,16.48-16.48h173.94v-.78h18.28v7.35h-18.28v-1.87h-171.99l-17.63,17.63c9.36,64.28,40.34,122.88,88.96,167.27,55.68,50.86,127.85,76.99,203.19,73.57,75.33-3.41,144.84-35.96,195.69-91.66,33.24-36.39,55.91-79.82,66.67-126.58h0c.46-1.96.88-3.91,1.29-5.88l5.33-2.61,9.61-4.73h61.14Z"/><path class="cls-4" d="M901.29,493.64h-59.53l-12.12-5.95-5.5-2.7c-.5-2.01-1.03-4.03-1.59-6.02-13.94-50.78-41.94-96.71-81.79-133.09-55.68-50.86-127.85-76.98-203.19-73.56-137.13,6.21-247.27,109.79-266.56,240.82l17.64,17.65h177.41v-1.14h18.28v7.35h-18.28v-1.51h-179.36l-20.72-20.73c.27-1.94.56-3.86.87-5.78,8.67-54.93,33.18-106.16,71.55-148.16,51.71-56.62,122.37-89.72,198.97-93.2,76.59-3.47,149.95,23.08,206.57,74.79,41.55,37.95,70.43,86.1,84.24,139.33h0s14.67,7.22,14.67,7.22h57.59c.29,1.57.58,3.14.84,4.7Z"/><path class="cls-4" d="M905.28,584.17c-.13,1.57-.27,3.14-.43,4.7h-111.42l-13.42,6.59c-5.96,33.38-19.26,65.3-39.45,93.77-36.03,50.8-89.68,84.53-151.07,94.97-61.4,10.45-123.18-3.64-173.98-39.66-44.79-31.77-76.31-77.22-90.3-129.61-.47-1.76-.92-3.53-1.35-5.3l3.9-3.9,15.88-15.88h120.72v-1.19h18.28v7.36h-18.28v-1.47h-118.78l-16.53,16.52c29.12,113.95,141.69,188.57,259.62,168.51,60.16-10.24,112.73-43.29,148.03-93.06,19.09-26.92,31.9-56.99,38.02-88.46.37-1.91.72-3.83,1.04-5.75l5.17-2.54,11.39-5.59h112.95Z"/><path class="cls-4" d="M904.28,514.44h-111.95l-13.51-6.63h0s-5.35-2.63-5.35-2.63c-.36-1.61-.72-3.23-1.12-4.83-12.96-53.57-44.44-100.13-89.82-132.32-49.78-35.3-110.31-49.11-170.47-38.88-60.15,10.24-112.73,43.29-148.02,93.07-16.42,23.15-28.19,48.64-35.06,75.34l16.63,16.63h123.01v-1.48h18.28v7.35h-18.28v-1.17h-124.96l-15.98-15.97-3.9-3.9v-.02c.43-1.77.88-3.52,1.35-5.28,7.09-26.28,18.86-51.36,35.07-74.22,36.03-50.81,89.68-84.53,151.07-94.98,61.4-10.44,123.18,3.65,173.98,39.66,47.1,33.4,79.52,81.95,92.31,137.77l15.87,7.79h110.3c.2,1.57.39,3.14.56,4.7Z"/><path class="cls-4" d="M905.85,576.15c-.09,1.57-.2,3.14-.32,4.7h-137.06l-12.56,6.16c-4.03,25.37-12.84,50.02-26.25,72.82-28.17,47.9-73.3,81.95-127.09,95.9-53.79,13.94-109.79,6.11-157.68-22.06-42.95-25.26-74.77-64.18-90.94-110.74-.57-1.65-1.13-3.32-1.67-4.99l18.78-18.78,1.03-1.02h95.48v-1.35h18.28v7.35h-18.28v-1.3h-93.53l-1.58,1.57-14.81,14.82c1.75,5.21,3.7,10.31,5.82,15.28.67,1.55,1.34,3.08,2.04,4.6,40.25,87.89,139.1,137.16,235.86,112.07,79.4-20.59,135.71-85.62,149.2-161.55.33-1.89.64-3.78.92-5.69l5.22-2.56,10.65-5.23h138.47Z"/><path class="cls-4" d="M905.09,522.46h-137.7l-12.5-6.13-5.3-2.61-1.2-5.5-.08-.37h0c-.35-1.51-.72-3.01-1.11-4.51-13.62-52.58-46.91-96.69-93.72-124.22-46.81-27.54-101.54-35.19-154.11-21.57-45.74,11.86-83.82,38.47-110.46,73.42-9.16,12.01-16.96,25.02-23.27,38.74-.69,1.52-1.39,3.06-2.04,4.6-2.15,5-4.11,10.09-5.85,15.26l14.83,14.83,1.51,1.5h87.94v-1.48h18.28v7.35h-18.28v-1.16h-89.89l-.96-.96-15.05-15.05-3.85-3.85c.53-1.66,1.09-3.32,1.67-4.96h0c4.45-12.7,10.18-25.02,17.15-36.88,28.17-47.9,73.3-81.95,127.09-95.9,53.79-13.94,109.79-6.11,157.68,22.06,47.89,28.17,81.95,73.3,95.89,127.09.72,2.79,1.39,5.57,1.99,8.36l14.76,7.24h136.15c.18,1.56.33,3.14.46,4.7Z"/><path class="cls-4" d="M726.48,516.6h0c-1.89-8.74-4.44-17.41-7.66-25.92-35.12-92.88-139.25-139.87-232.13-104.76-49.01,18.53-85.24,56.29-103.37,101.47l9.13,9.13h4.27c13.4-35.64,39.13-66.83,75.12-86.42,79.56-43.31,179.5-13.83,222.82,65.72,8.96,16.45,14.8,33.75,17.73,51.26h0s14.73,7.24,14.73,7.24h174.88v4.7h-175.97l-12.79-6.28-5.11-2.51c-.3-1.91-.62-3.82-.98-5.72-3-15.86-8.49-31.52-16.61-46.43-42.07-77.27-139.16-105.91-216.44-63.83-34.39,18.72-59.16,48.34-72.33,82.28h12.85c9.31-21.94,24.05-41.92,43.99-57.76,30.89-24.51,69.47-35.54,108.64-31.04,39.17,4.51,74.24,23.98,98.76,54.86,16.58,20.89,27,45.32,30.6,71.06l12.69,6.23,4.13,2.03h174.88v4.7h-175.96l-2.64-1.29-12.41-6.1-5.02-2.47c-.12-1.07-.26-2.12-.42-3.19-3.58-24.65-13.62-48.02-29.52-68.05-23.74-29.9-57.69-48.76-95.62-53.12-37.93-4.35-75.27,6.32-105.18,30.06-18.75,14.89-32.75,33.56-41.79,54.07h47.88v-1.07h18.28v7.35h-18.28v-1.58h-77.11l-9.02-9.02h0s-3.65-3.65-3.65-3.65c.6-1.6,1.23-3.19,1.88-4.76,18.84-45.53,55.7-83.5,105.33-102.26,21.44-8.11,43.47-11.95,65.14-11.95,74.66,0,145.13,45.58,173.06,119.45,3.67,9.7,6.48,19.58,8.48,29.55l15.72,7.72h158c.13,1.57.24,3.14.33,4.7h-159.42l-13.57-6.67-5.23-2.56c-.32-1.72-.67-3.43-1.05-5.16Z"/><path class="cls-4" d="M906.27,567.62c-.06,1.57-.13,3.14-.21,4.7h-158.65l-13.84,6.79h0c-2.39,17.49-7.32,34.74-14.78,51.27-20.3,44.98-56.91,79.37-103.07,96.83-93.54,35.36-198.17-10.42-236.1-102.21-.66-1.57-1.29-3.15-1.89-4.75l12.74-12.74h68.99v-1.25h18.28v7.35h-18.28v-1.4h-39.78c4.8,10.86,11.05,21.28,18.77,31.01,49.01,61.71,139.07,72.05,200.79,23.05,29.89-23.74,48.76-57.69,53.11-95.62.15-1.26.27-2.53.37-3.79.18-1.81.3-3.63.39-5.43l4.81-2.36,11.98-5.88,2.41-1.19h175.96v4.7h-174.88l-3.55,1.75-12.19,5.99c-.16,2.25-.36,4.49-.62,6.75-4.51,39.17-23.98,74.24-54.86,98.76-63.75,50.61-156.78,39.93-207.4-23.81-8.43-10.62-15.15-22.04-20.21-33.94h-12.91c2.44,6.24,5.3,12.41,8.59,18.45,42.07,77.27,139.16,105.91,216.44,63.83,47.05-25.62,76.08-71.65,82.07-121.18.22-1.84.42-3.69.57-5.53l4.91-2.41,11.77-5.78h175.97v4.7h-174.88l-13.34,6.55c-5.34,52.14-35.43,100.89-84.83,127.79-79.56,43.31-179.5,13.82-222.82-65.72-3.69-6.77-6.84-13.68-9.48-20.7h-4.19l-9.19,9.19c36.33,90.65,139.07,136.09,230.82,101.4,45-17.02,80.67-50.53,100.46-94.38,6.81-15.12,11.47-30.85,13.94-46.81l.78-5.62,5.02-2.45,12.08-5.94h159.94Z"/><path class="cls-4" d="M904.24,594.58c-.17,1.57-.36,3.14-.56,4.7h-88.59l-9.78,4.81c-8.05,41.59-26.32,80.79-53.86,114.51-43.88,53.71-106.04,87.12-175.03,94.08-68.99,6.95-136.57-13.37-190.27-57.24-46.66-38.11-77.99-90.02-89.98-148.22-.38-1.85-.74-3.7-1.08-5.56l4.06-4.06,16.04-16.04h155.96v-1.05h18.28v7.35h-18.28v-1.6h-154.02l-16.96,16.96c24.83,127.75,143.8,218.09,275.77,204.79,113.11-11.4,201.64-95.49,223.91-201.23h0c.42-1.93.8-3.86,1.15-5.8v-.02l5.34-2.62,7.65-3.75h90.24Z"/><path class="cls-4" d="M902.94,504.05h-88.94l-9.9-4.86v-.02l-5.46-2.66c-.45-1.99-.94-3.98-1.45-5.96-30.89-119.75-145.64-202.58-272.39-189.8-114.35,11.53-203.62,97.39-224.63,204.79l16.96,16.96h148.94v-1.48h18.28v7.35h-18.28v-1.17h-150.89l-16.05-16.06-4.14-4.13c.35-1.86.72-3.72,1.09-5.56,8.36-40.39,26.39-78.44,53.22-111.29,43.88-53.71,106.04-87.12,175.03-94.08,68.99-6.95,136.57,13.37,190.27,57.23,44.45,36.3,74.98,85.12,88.14,139.98h0s12.34,6.07,12.34,6.07h87.15c.25,1.57.49,3.14.71,4.7Z"/><rect class="cls-4" x="257.82" y="391.85" width="16.44" height="57.54" transform="translate(203.95 -73.19) rotate(25.15)"/><rect class="cls-4" x="793.75" y="657.1" width="16.44" height="57.54" transform="translate(367.47 -275.79) rotate(25.15)"/><rect class="cls-4" x="369.52" y="785.24" width="16.44" height="57.54" transform="translate(1261.71 968.58) rotate(124.81)"/><rect class="cls-4" x="709.35" y="296.49" width="16.44" height="57.54" transform="translate(1394.26 -78.21) rotate(124.81)"/><rect class="cls-4" x="826.39" y="405.93" width="16.44" height="29.37" transform="translate(1767.71 367.57) rotate(150)"/><rect class="cls-4" x="311.28" y="654.63" width="16.44" height="29.37" transform="translate(930.85 1089.21) rotate(150)"/><circle class="cls-4" cx="550.12" cy="555.85" r="232.97" transform="translate(-231.92 551.8) rotate(-45)"/><path class="cls-4" d="M550.12,789.16c-62.32,0-120.91-24.27-164.97-68.33-44.07-44.07-68.33-102.65-68.33-164.97s24.27-120.91,68.33-164.97c44.07-44.07,102.65-68.33,164.97-68.33s120.91,24.27,164.97,68.33c44.07,44.07,68.33,102.65,68.33,164.97s-24.27,120.91-68.33,164.97c-44.07,44.07-102.65,68.33-164.97,68.33ZM550.12,323.23c-128.27,0-232.63,104.36-232.63,232.63s104.36,232.63,232.63,232.63,232.63-104.36,232.63-232.63-104.36-232.63-232.63-232.63Z"/><circle class="cls-2" cx="555.84" cy="555.48" r="411.72"/><path class="cls-3" d="M479.69,860.16l-144.64-418.91c-7.72-21.56-16.59-36.97-26.62-46.22s-22.36-13.88-37.02-13.88h-34.72v-80h308.19v80h-19.03c-15.39,0-26.94,2.41-34.62,7.22s-11.53,12.23-11.53,22.25c0,5.41.86,12.34,2.59,20.81s4.53,18.48,8.38,30.03l87.11,257.7,94.69-268.67c2.69-6.94,4.72-13.58,6.06-19.94,1.34-6.34,2.02-12.22,2.02-17.62,0-11.16-4.25-19.25-12.72-24.27-8.47-5-21.95-7.52-40.44-7.52h-28.27v-80h275.58v80h-29.47c-16.19,0-30.14,5.78-41.89,17.34s-21.88,29.66-30.34,54.3l-143.3,407.36h-150Z"/></g></svg>