<svg xmlns="http://www.w3.org/2000/svg" fill="none" viewBox="0 0 16 16"><path fill="#000" d="M9.438 3.946a2.096 2.096 0 0 0-.66-.457 1.961 1.961 0 0 0-.802-.166c-.284 0-.552.055-.802.166a2.05 2.05 0 0 0-.654.457 2.197 2.197 0 0 0-.44.676 2.095 2.095 0 0 0-.163.823v1.607c0 .293.054.567.162.824.108.257.256.482.44.676.187.193.404.346.655.456.25.111.518.167.802.167.285 0 .552-.056.803-.167.25-.11.47-.263.659-.456.188-.194.337-.42.445-.676.108-.257.162-.531.162-.824V5.445c0-.292-.054-.566-.162-.823a2.17 2.17 0 0 0-.445-.676ZM15.337 4.622a2.172 2.172 0 0 0-.446-.676 2.096 2.096 0 0 0-.659-.457 1.961 1.961 0 0 0-.802-.166c-.31 0-.577.063-.803.19a1.664 1.664 0 0 0-.56.514l-.381-.628H10.6v2.425h.585v2.848H10.6v2.426h2.162V9.04c.195.083.418.125.668.125.284 0 .552-.055.803-.166a2.1 2.1 0 0 0 1.266-1.946V5.444c0-.292-.054-.566-.162-.823ZM4.792 3.946a2.096 2.096 0 0 0-.66-.457 1.961 1.961 0 0 0-.802-.166c-.309 0-.576.063-.802.19a1.664 1.664 0 0 0-.561.514l-.38-.628H.5v2.425h.584v2.848H.501v2.426h2.161V9.04c.196.083.418.125.668.125.285 0 .552-.055.803-.166a2.1 2.1 0 0 0 1.266-1.946V5.444c0-.292-.054-.566-.162-.823a2.164 2.164 0 0 0-.445-.676Z"/><path fill="#F56651" d="M9.437 5.85a2.096 2.096 0 0 0-.659-.456 1.961 1.961 0 0 0-.802-.167c-.285 0-.552.056-.803.167a2.05 2.05 0 0 0-.654.457 2.197 2.197 0 0 0-.44.675 2.095 2.095 0 0 0-.163.824v1.607c0 .292.055.566.163.823.108.257.255.482.44.676.186.194.404.346.654.457.25.11.518.166.803.166.284 0 .552-.055.802-.166.25-.11.47-.263.659-.457.189-.194.337-.419.445-.676a2.1 2.1 0 0 0 .162-.823V7.35c0-.292-.054-.567-.162-.824a2.171 2.171 0 0 0-.445-.675Zm-.912 2.515a.552.552 0 0 1-.16.396.552.552 0 0 1-.386.165.542.542 0 0 1-.5-.343.552.552 0 0 1-.044-.218v-.424a.585.585 0 0 1 .16-.396.537.537 0 0 1 .384-.165c.075 0 .145.015.211.044a.557.557 0 0 1 .335.517v.424ZM15.338 6.526a2.17 2.17 0 0 0-.445-.675 2.096 2.096 0 0 0-.66-.457 1.961 1.961 0 0 0-.802-.167c-.31 0-.577.064-.802.19a1.664 1.664 0 0 0-.561.515l-.381-.629h-1.085V7.73h.584v2.847h-.584v2.426h2.161v-2.057c.196.083.418.125.668.125.285 0 .552-.056.803-.167A2.1 2.1 0 0 0 15.5 8.957V7.35c0-.292-.054-.567-.162-.824Zm-1.309 1.84a.551.551 0 0 1-.16.395.552.552 0 0 1-.386.165.54.54 0 0 1-.5-.343.553.553 0 0 1-.044-.218v-.424a.585.585 0 0 1 .16-.396.537.537 0 0 1 .384-.165c.075 0 .146.015.212.044a.558.558 0 0 1 .334.517v.424ZM4.79 5.85a2.096 2.096 0 0 0-.658-.456 1.961 1.961 0 0 0-.802-.167c-.31 0-.577.064-.803.19a1.664 1.664 0 0 0-.561.515l-.38-.629H.5V7.73h.585v2.847H.5v2.426h2.162v-2.057c.195.083.417.125.668.125.284 0 .552-.056.802-.167a2.1 2.1 0 0 0 1.266-1.946V7.35c0-.292-.054-.567-.162-.824a2.171 2.171 0 0 0-.445-.675Zm-.862 2.515a.552.552 0 0 1-.16.396.552.552 0 0 1-.387.165.542.542 0 0 1-.5-.343.552.552 0 0 1-.043-.218v-.424c0-.077.014-.15.042-.217a.585.585 0 0 1 .117-.179.537.537 0 0 1 .384-.165c.075 0 .146.015.212.044a.557.557 0 0 1 .335.517v.424Z"/></svg>
